<svg width="337" height="70" viewBox="0 0 337 70" fill="none" xmlns="http://www.w3.org/2000/svg">
<path d="M320.007 8.36485C320.147 7.1887 321.853 7.18871 321.993 8.36486L323.468 20.7925C323.515 21.1876 323.792 21.5172 324.173 21.6321L333.825 24.5426C334.773 24.8286 334.773 26.1714 333.825 26.4574L324.173 29.3679C323.792 29.4828 323.515 29.8124 323.468 30.2075L321.993 42.6351C321.853 43.8113 320.147 43.8113 320.007 42.6351L318.532 30.2075C318.485 29.8124 318.208 29.4828 317.827 29.3679L308.175 26.4574C307.227 26.1714 307.227 24.8286 308.175 24.5426L317.827 21.6321C318.208 21.5172 318.485 21.1876 318.532 20.7925L320.007 8.36485Z" fill="#FF6F00" fill-opacity="0.4"/>
<path d="M239.182 11.2326C239.286 10.3563 240.557 10.3563 240.661 11.2326L241.761 20.4925C241.796 20.7868 242.002 21.0324 242.286 21.118L249.477 23.2866C250.184 23.4997 250.184 24.5003 249.477 24.7134L242.286 26.882C242.002 26.9676 241.796 27.2132 241.761 27.5075L240.661 36.7673C240.557 37.6437 239.286 37.6437 239.182 36.7674L238.082 27.5075C238.047 27.2132 237.841 26.9676 237.558 26.882L230.366 24.7134C229.659 24.5003 229.659 23.4997 230.366 23.2866L237.558 21.118C237.841 21.0324 238.047 20.7868 238.082 20.4925L239.182 11.2326Z" fill="#FFA300" fill-opacity="0.4"/>
<path d="M280.182 35.2326C280.286 34.3563 281.557 34.3563 281.661 35.2326L282.761 44.4925C282.796 44.7868 283.002 45.0324 283.286 45.118L290.477 47.2866C291.184 47.4997 291.184 48.5003 290.477 48.7134L283.286 50.882C283.002 50.9676 282.796 51.2132 282.761 51.5075L281.661 60.7673C281.557 61.6437 280.286 61.6437 280.182 60.7674L279.082 51.5075C279.047 51.2132 278.841 50.9676 278.558 50.882L271.366 48.7134C270.659 48.5003 270.659 47.4997 271.366 47.2866L278.558 45.118C278.841 45.0324 279.047 44.7868 279.082 44.4925L280.182 35.2326Z" fill="#FF6F00" fill-opacity="0.4"/>
<path d="M59.007 9.36485C59.1466 8.1887 60.8534 8.18871 60.993 9.36486L62.4684 21.7925C62.5153 22.1876 62.7918 22.5172 63.1727 22.6321L72.8249 25.5426C73.7733 25.8286 73.7733 27.1714 72.8249 27.4574L63.1727 30.3679C62.7918 30.4828 62.5153 30.8124 62.4684 31.2075L60.993 43.6351C60.8534 44.8113 59.1466 44.8113 59.007 43.6351L57.5316 31.2075C57.4847 30.8124 57.2082 30.4828 56.8273 30.3679L47.1751 27.4574C46.2267 27.1714 46.2267 25.8286 47.1751 25.5426L56.8273 22.6321C57.2082 22.5172 57.4847 22.1876 57.5316 21.7925L59.007 9.36485Z" fill="#FFB800" fill-opacity="0.4"/>
<path d="M93.1817 35.2326C93.2857 34.3563 94.5574 34.3563 94.6615 35.2326L95.7607 44.4925C95.7957 44.7868 96.0018 45.0324 96.2855 45.118L103.477 47.2866C104.184 47.4997 104.184 48.5003 103.477 48.7134L96.2855 50.882C96.0018 50.9676 95.7957 51.2132 95.7607 51.5075L94.6615 60.7673C94.5574 61.6437 93.2857 61.6437 93.1817 60.7674L92.0824 51.5075C92.0474 51.2132 91.8414 50.9676 91.5576 50.882L84.3658 48.7134C83.6591 48.5003 83.6591 47.4997 84.3658 47.2866L91.5576 45.118C91.8414 45.0324 92.0474 44.7868 92.0824 44.4925L93.1817 35.2326Z" fill="#FFB800" fill-opacity="0.4"/>
<path d="M11.1817 38.2326C11.2857 37.3563 12.5574 37.3563 12.6615 38.2326L13.7607 47.4925C13.7957 47.7868 14.0018 48.0324 14.2855 48.118L21.4774 50.2866C22.184 50.4997 22.184 51.5003 21.4774 51.7134L14.2855 53.882C14.0018 53.9676 13.7957 54.2132 13.7607 54.5075L12.6615 63.7673C12.5574 64.6437 11.2857 64.6437 11.1817 63.7674L10.0824 54.5075C10.0474 54.2132 9.84138 53.9676 9.5576 53.882L2.36577 51.7134C1.65912 51.5003 1.65912 50.4997 2.36577 50.2866L9.5576 48.118C9.84138 48.0324 10.0474 47.7868 10.0824 47.4925L11.1817 38.2326Z" fill="#FF6F00" fill-opacity="0.4"/>
</svg>
