<svg width="88" height="80" viewBox="0 0 88 80" fill="none" xmlns="http://www.w3.org/2000/svg">
<path d="M84.2294 34.4805C82.3582 35.784 79.8325 35.9946 77.7263 34.7812C75.6138 33.5691 74.535 31.2851 74.7331 29.014C72.4569 29.2131 70.1701 28.1323 68.9534 26.0303C67.7333 23.9297 67.9401 21.4098 69.2544 19.5445C67.1822 18.5834 65.7421 16.5051 65.7421 14.0796C65.7363 11.6522 67.1827 9.57436 69.2544 8.61269C67.9459 6.74504 67.7362 4.22804 68.9534 2.12699C69.4841 1.20696 70.2473 0.516938 71.1028 0.010439C60.295 -0.235547 48.3968 6.44337 45.2642 15.4587C39.3957 -1.41076 2.83523 -10.1302 0.173586 19.5116C-3.25567 57.6525 45.2613 80 45.2613 80C45.2613 80 78.5095 64.6617 88 37.7306C86.3269 37.2381 84.9582 36.0392 84.2294 34.4805Z" fill="#F61B16"/>
<path d="M23.5 46.5C27.0121 50.5974 33.2429 55.5172 40.5 56.9272M63.5 46.5C61.0489 49.6606 58.5301 52.0143 56 53.7048M20 47C21.5 47.1697 24.6 46.7074 25 43.5M62 43.5C62.1667 45 63.5 47.8 67.5 47M40.5 56.9272C42.4349 57.0657 46.0896 56.1992 48.8665 52.5043C51.3028 49.2627 51.945 43 56 43V43C57.5 43 60.5 45.9096 56 53.7048M40.5 56.9272C45.3746 57.8743 50.7122 57.2378 56 53.7048" stroke="#FFBD00" stroke-width="1.7" stroke-linecap="round"/>
<path d="M48 57C49.6667 56.6667 53.4 54.3 55 47.5" stroke="#FFBD00" stroke-width="1.7" stroke-linecap="round"/>
</svg>
