<svg width="60" height="60" viewBox="0 0 60 60" fill="none" xmlns="http://www.w3.org/2000/svg">
<path d="M6.52252 15.665C6.98002 15.05 7.58252 14.2175 8.06502 13.6225C9.51002 11.9825 9.69752 11.7675 11.0125 10.555C11.4025 10.235 11.865 9.85 12.3175 9.4875C8.98002 12.3125 8.55502 15.44 11.6175 17.3725C11.6125 17.3725 11.6125 17.3725 11.6125 17.3775C15.895 19.9575 25.28 19.4 32.685 16.095C39.8575 12.895 42.505 8.3175 38.965 5.5975C35.8575 5.015 32.1525 4.9475 28.2325 5.4725L27.825 4.8L28.1625 3.685C30.4675 3.4775 32.6575 3.5275 34.5475 3.85C35.005 3.9275 35.6075 4.06 36.0575 4.155C36.9275 4.3675 37.4 4.495 37.9675 4.6775C38.5475 4.85 39.0425 5.0225 39.905 5.3425C40.75 5.675 41.115 5.825 41.7925 6.1625C42.5512 6.50866 43.2884 6.9002 44 7.335C49.64 10.8825 46.1325 17.355 36.18 21.79C26.255 26.21 13.6075 26.905 7.94002 23.4C7.93752 23.395 7.93002 23.39 7.91502 23.385H7.92502C4.83002 21.425 4.50502 18.58 6.52252 15.665ZM32.345 40.465L32.265 36.48L29.4325 33.33C20.075 35.45 10.8775 34.995 5.76252 31.9825C5.74502 31.9625 5.70252 31.9425 5.68502 31.9225C2.79002 30.14 2.07502 27.84 2.29252 25.34C1.61502 28.9975 1.56002 30.3175 1.65752 33.4475C1.77752 35.4075 2.91002 37.215 5.18752 38.64L5.20502 38.66C10.6575 42.05 22.0175 42.785 32.345 40.465ZM44.1575 45.0275C30.95 50.325 14.42 50.6375 7.24002 45.735C8.01541 47.6299 9.07047 49.3979 10.37 50.98C16.96 55.48 32.1325 55.1925 44.25 50.33C51.3425 47.4875 55.8175 43.705 56.9925 40.16L57.3225 39.0925C58.105 36.3875 58.2525 34.135 58.3775 32.13C58.235 36.4825 53.1075 41.4325 44.1575 45.0275ZM15.0025 55.23C15.4175 55.625 16.7225 57.2275 23.335 58.9975C25.1225 59.3925 29.6225 60.66 37.935 58.8175L37.985 58.06L37.3275 57.03C29.615 58.855 21.0475 58.245 15.0025 55.23ZM34.0875 23.7075L41.11 29.03C41.11 29.03 42.6125 30.1125 41.195 30.8725C39.7825 31.625 36.155 33.4675 36.155 33.4675L32.5725 32.13L30.775 32.93L33.945 35.6825L33.97 39.965L35.8325 39.1375L37.0675 35.52C37.0675 35.52 40.86 34.06 42.365 33.51C43.8775 32.9725 43.675 34.8125 43.675 34.8125L42.93 43.59L45.405 42.49L49.48 30.6475C49.48 30.6475 51.64 29.5975 53.16 28.675C54.6775 27.7525 55.1975 26.2225 55.1975 26.2225C55.1975 26.2225 53.7175 25.585 52.0125 26.0975C50.3075 26.605 48.085 27.51 48.085 27.51L36.555 22.6125L34.0875 23.7075ZM19.23 6.8675L23.9975 10.665L25.3 10.47L22.705 7.0625C22.705 7.0625 22.14 6.3575 22.9 6.19C23.665 6.02 25.6 5.625 25.6 5.625L27.055 6.7875L28.035 6.6425L26.925 4.8775L27.51 2.92L26.5625 3.0575L25.44 4.5475C25.44 4.5475 23.47 4.7325 22.695 4.7975C21.915 4.8575 22.25 4.02 22.25 4.02L23.745 0L22.435 0.1925L18.985 5.215C18.985 5.215 17.835 5.425 17.0025 5.6625C16.1675 5.8975 15.7275 6.5425 15.7275 6.5425C15.7275 6.5425 16.34 7.0375 17.2025 7.02C18.0725 7.0025 19.23 6.8675 19.23 6.8675ZM42.7925 55.6625L39.7075 54.05L38.9975 54.2975L40.825 55.9325C40.825 55.9325 41.215 56.265 40.805 56.4425C40.395 56.6175 39.35 57.0475 39.35 57.0475L38.4875 56.6625L37.975 56.8475L38.6925 57.6125L38.6225 58.73L39.1575 58.545L39.5575 57.6375C39.5575 57.6375 40.6425 57.315 41.075 57.2C41.505 57.0825 41.4075 57.5875 41.4075 57.5875L41 60L41.7125 59.7525L43.11 56.5625C43.11 56.5625 43.7275 56.32 44.17 56.0975C44.6125 55.875 44.7875 55.465 44.7875 55.465C44.7875 55.465 44.395 55.25 43.91 55.3575C43.4225 55.46 42.7925 55.6625 42.7925 55.6625Z" fill="#F2D194"/>
</svg>
