<?xml version="1.0" standalone="no"?>
<!DOCTYPE svg PUBLIC "-//W3C//DTD SVG 20010904//EN"
 "http://www.w3.org/TR/2001/REC-SVG-20010904/DTD/svg10.dtd">
<svg version="1.0" xmlns="http://www.w3.org/2000/svg"
 width="536.000000pt" height="532.000000pt" viewBox="0 0 536.000000 532.000000"
 preserveAspectRatio="xMidYMid meet">

<g transform="translate(0.000000,532.000000) scale(0.100000,-0.100000)"
fill="#000000" stroke="none">
<path d="M4785 5071 l-140 -16 -128 -190 c-443 -654 -538 -798 -519 -785 12 8
244 186 516 395 l495 380 0 71 c1 39 -2 92 -5 118 -7 45 -7 46 -43 45 -20 -1
-99 -9 -176 -18z"/>
<path d="M1405 4866 c-2 -6 -6 -49 -9 -96 l-6 -85 228 -222 c125 -121 228
-220 230 -218 3 3 -306 597 -316 607 -14 14 -123 26 -127 14z"/>
<path d="M4141 4841 c-35 -22 -67 -43 -72 -48 -7 -7 -99 -552 -99 -585 0 -12
42 66 237 446 l67 129 -26 45 c-15 26 -30 48 -35 49 -4 1 -37 -15 -72 -36z"/>
<path d="M2755 4450 c-77 -231 -142 -420 -145 -420 -3 0 -97 73 -208 161 -112
88 -206 158 -208 156 -3 -2 -18 -113 -34 -247 -16 -133 -31 -244 -32 -246 -2
-2 -226 168 -498 378 -272 209 -551 424 -619 477 -69 52 -122 91 -119 86 5
-11 41 -71 416 -705 138 -234 253 -432 257 -440 4 -12 -16 -19 -107 -34 -62
-10 -115 -20 -117 -21 -2 -2 4 -35 12 -72 8 -37 14 -69 13 -70 -4 -4 -314 -63
-345 -65 -33 -3 -35 -1 -44 35 -5 22 -14 36 -21 34 -6 -2 -85 -25 -176 -51
-91 -26 -196 -56 -233 -67 l-68 -20 7 -37 c4 -20 49 -161 99 -313 l93 -277
-229 -78 c-126 -44 -229 -81 -229 -84 0 -4 70 -21 445 -107 l110 -25 60 -175
60 -174 -85 -79 -85 -79 106 -1 c73 0 110 -4 116 -13 6 -6 41 -102 78 -212 37
-110 71 -204 76 -209 4 -4 92 19 196 52 103 33 189 58 191 57 1 -1 -97 -147
-219 -324 -121 -177 -219 -324 -217 -327 3 -2 47 12 99 32 52 20 157 60 234
89 260 100 480 183 547 209 l67 25 5 -27 c3 -15 21 -137 41 -271 20 -135 38
-247 41 -250 4 -4 125 116 270 264 145 149 264 267 264 264 0 -16 272 -805
280 -812 8 -9 8 -13 106 533 37 206 69 377 70 379 2 2 98 -72 215 -164 117
-92 218 -169 225 -172 8 -3 16 8 22 29 5 18 33 117 62 220 l54 187 40 -33 c23
-18 228 -185 456 -372 506 -413 560 -456 560 -449 0 3 -106 217 -236 476 -129
259 -234 473 -232 475 2 1 23 -2 47 -7 129 -29 281 79 281 199 0 25 5 35 19
39 19 5 19 6 -3 42 -31 48 -42 93 -21 85 8 -4 15 -1 15 5 0 46 307 830 465
1185 69 157 93 221 84 226 -7 5 -9 18 -6 32 6 24 1 26 -123 67 -72 24 -130 44
-130 46 0 1 67 58 149 126 82 68 148 125 146 127 -1 1 -74 -15 -161 -36 -88
-22 -257 -63 -377 -92 l-218 -52 -142 33 c-78 18 -144 34 -146 35 -3 3 56 237
83 329 8 25 12 45 10 45 -2 0 -107 -49 -233 -109 -277 -131 -273 -130 -267
-99 3 13 22 185 41 383 20 198 42 416 49 485 8 69 12 127 10 129 -1 2 -16 -12
-32 -30 -591 -680 -602 -691 -611 -667 -4 13 -66 197 -137 411 -71 213 -131
387 -134 387 -3 0 -68 -189 -145 -420z m169 128 c10 -35 23 -74 28 -88 36 -88
75 -218 63 -214 -12 5 -45 -20 -45 -35 0 -17 31 -33 53 -27 21 5 25 0 39 -45
14 -43 14 -51 2 -56 -8 -3 -14 -13 -14 -23 0 -21 25 -44 39 -36 14 9 43 -87
36 -117 -9 -34 25 -55 49 -31 9 8 16 22 16 31 0 8 30 48 66 89 58 65 68 72 85
61 15 -9 22 -8 36 5 13 14 14 22 6 41 -10 21 -7 29 20 59 18 19 50 57 72 83
38 47 40 48 45 24 7 -28 47 -34 63 -8 16 25 1 49 -29 49 l-27 0 23 25 c13 14
30 23 38 20 22 -8 53 24 47 49 -4 15 8 35 40 71 l45 50 -6 -65 c-5 -44 -13
-71 -25 -83 -23 -21 -23 -27 -4 -53 23 -30 19 -54 -9 -54 -30 0 -50 -23 -41
-50 6 -18 23 -25 48 -21 5 1 6 -11 3 -26 -3 -15 -11 -86 -17 -158 -10 -105
-16 -133 -31 -143 -22 -16 -23 -30 -3 -52 19 -21 9 -60 -16 -60 -28 0 -43 -35
-23 -54 9 -9 20 -14 25 -11 5 4 9 -16 9 -44 0 -28 2 -51 5 -51 6 0 268 122
395 184 40 20 70 29 70 23 -1 -25 -58 -212 -64 -209 -3 1 -12 2 -20 2 -7 0
-16 9 -19 20 -10 40 -73 14 -65 -27 2 -13 13 -18 36 -18 24 0 31 -4 28 -15 -3
-8 -8 -46 -12 -83 -4 -41 -12 -71 -19 -73 -25 -10 -157 15 -177 32 -16 15 -23
16 -38 6 -11 -7 -31 -12 -45 -12 -20 0 -25 5 -25 24 0 33 -38 46 -58 20 -13
-17 -14 -15 -8 24 4 24 3 49 -1 55 -4 6 -6 26 -4 44 3 40 -26 60 -55 38 -11
-8 -31 -15 -45 -15 -22 0 -25 3 -21 29 3 20 -1 30 -13 35 -23 8 -48 -13 -42
-36 6 -22 0 -22 -188 -3 -77 8 -141 15 -142 15 -2 0 -3 6 -3 14 0 17 -25 27
-46 19 -26 -10 -13 -48 16 -48 l25 0 -3 -110 c-2 -60 -8 -114 -12 -119 -5 -5
-6 -29 -3 -55 4 -41 3 -47 -19 -56 -29 -13 -30 -37 0 -50 12 -6 20 -16 17 -23
-3 -8 -5 -44 -5 -80 0 -47 -3 -63 -10 -52 -5 8 -10 26 -10 40 0 14 -6 34 -14
45 -7 11 -26 49 -41 84 -15 36 -44 90 -65 122 -28 40 -37 63 -33 79 7 25 -13
42 -39 34 -10 -3 -37 10 -65 30 -90 64 -230 103 -316 87 -45 -8 -47 -8 -41 14
6 26 -16 48 -40 39 -18 -7 -22 -54 -4 -54 20 0 -1 -14 -50 -32 -57 -22 -62
-22 -62 -3 0 21 -49 20 -57 -1 -3 -9 -1 -24 5 -34 9 -14 5 -21 -19 -39 -37
-27 -109 -124 -139 -185 -19 -39 -24 -44 -39 -34 -36 22 -76 -17 -50 -48 7 -8
21 -13 31 -11 10 3 18 0 18 -6 -1 -18 -28 -74 -29 -60 -1 17 -40 27 -55 14
-11 -9 -15 -3 -20 33 -4 25 -4 61 0 81 5 26 2 39 -9 48 -9 7 -21 50 -31 106
-14 87 -14 97 0 113 20 21 12 48 -16 55 -11 3 -20 11 -20 17 0 8 -12 11 -34 8
-18 -2 -37 1 -40 7 -11 18 -45 13 -58 -9 -8 -12 -24 -20 -40 -20 -30 0 -35 9
-17 27 19 19 1 53 -29 53 -21 0 -32 9 -50 41 -22 38 -22 42 -7 53 10 7 16 22
13 37 -3 21 -8 24 -39 23 -33 -1 -38 3 -64 49 -17 30 -22 48 -14 45 21 -8 49
10 49 30 0 42 -55 58 -69 20 -7 -19 -15 -10 -64 73 -32 52 -57 102 -57 111 0
9 -8 23 -18 30 -31 23 -63 87 -56 114 7 28 -10 54 -36 54 -10 0 -27 16 -39 36
-43 72 -28 64 148 -73 3 -2 -3 -9 -13 -16 -11 -8 -17 -23 -14 -38 2 -19 9 -24
33 -24 24 0 31 5 33 23 3 23 4 23 23 6 10 -9 19 -25 19 -34 0 -24 22 -40 51
-38 16 1 52 -20 107 -62 74 -57 81 -65 62 -72 -32 -12 -24 -63 10 -63 15 0 28
8 35 21 9 18 14 20 27 10 9 -7 18 -25 20 -41 3 -27 7 -30 39 -31 29 -1 58 -18
152 -90 97 -74 116 -94 119 -119 3 -27 6 -30 39 -30 24 -1 47 -10 68 -28 18
-15 36 -27 41 -27 20 0 30 30 24 72 -6 43 -5 46 20 52 19 5 26 13 26 31 0 14
-3 25 -7 25 -32 1 -34 17 -18 146 24 196 13 183 99 116 67 -52 73 -60 68 -86
-7 -40 23 -59 51 -31 13 13 19 10 48 -20 19 -19 38 -35 43 -35 5 0 27 -15 50
-33 23 -18 46 -37 53 -40 12 -8 43 44 43 73 0 9 11 38 25 64 14 26 23 51 20
56 -7 11 13 63 27 71 6 4 12 26 13 48 1 26 10 50 23 64 14 15 20 34 19 60 -1
31 5 43 27 61 24 19 27 25 18 43 -13 24 -5 63 14 63 21 0 38 38 24 55 -11 13
-4 65 10 65 4 0 15 -28 24 -62z m436 -984 c91 -9 166 -17 167 -18 1 -1 -18
-162 -42 -357 -46 -365 -51 -416 -36 -389 4 8 43 139 86 290 42 151 78 276 79
277 3 3 221 -22 287 -33 l37 -5 8 -287 c5 -174 11 -265 15 -232 12 113 100
694 104 699 3 2 84 -13 180 -34 128 -28 175 -42 175 -52 0 -8 -25 -126 -55
-261 -210 -952 -304 -1382 -310 -1415 -4 -20 -11 -40 -16 -43 -7 -4 -360 34
-366 40 -1 1 5 80 12 176 8 96 15 294 14 440 l0 265 -23 -70 c-13 -38 -65
-225 -116 -415 -52 -190 -96 -348 -100 -353 -6 -7 -378 16 -384 24 -1 2 17
373 40 824 24 451 43 848 44 883 0 52 3 62 17 62 10 0 92 -7 183 -16z m-1500
-424 c33 -212 87 -549 120 -750 95 -584 93 -572 81 -579 -19 -12 -342 -93
-348 -87 -3 2 -29 81 -57 173 -59 188 -160 462 -210 568 l-34 70 5 -60 c2 -33
23 -226 45 -428 22 -203 38 -370 36 -371 -8 -7 -360 -117 -364 -113 -8 8 -564
1656 -564 1672 0 9 338 110 345 103 2 -2 33 -120 70 -263 114 -440 133 -511
134 -490 1 11 -12 155 -29 320 -16 164 -28 300 -26 302 11 12 310 83 316 76 4
-4 49 -109 99 -233 90 -223 126 -303 116 -265 -2 11 -27 115 -54 230 -27 116
-65 274 -84 352 l-34 142 66 10 c36 6 118 19 181 29 l115 19 7 -21 c4 -12 34
-194 68 -406z m813 381 c74 -29 165 -113 217 -200 94 -159 148 -405 157 -711
9 -297 -18 -472 -99 -639 -90 -188 -243 -274 -445 -249 -289 34 -450 347 -470
913 -13 353 51 629 178 778 44 52 106 92 184 120 68 24 198 18 278 -12z m2146
-10 c14 -26 -29 -57 -58 -42 -34 19 -33 40 2 50 45 13 45 13 56 -8z m-198
-117 c-21 -76 -33 -100 -54 -116 -27 -20 -27 -20 -27 1 0 11 -9 26 -20 34 -29
20 -17 45 20 39 24 -3 32 1 41 22 15 33 -2 56 -42 56 -27 0 -47 15 -35 27 3 3
24 6 48 7 24 1 52 7 63 13 11 7 23 13 26 13 4 0 -6 -43 -20 -96z m246 -35 c87
-28 161 -53 165 -56 5 -2 1 -18 -8 -35 -78 -151 -322 -751 -468 -1154 l-37
-101 -97 30 c-53 16 -100 32 -104 36 -4 3 31 132 78 286 46 154 132 447 190
650 123 432 112 395 118 395 3 0 76 -23 163 -51z m-372 -128 c3 -5 1 -12 -5
-16 -5 -3 -10 1 -10 9 0 18 6 21 15 7z m24 -198 c-22 -76 -44 -155 -49 -175
-12 -43 -16 -45 -49 -19 l-25 19 24 111 23 112 56 44 c31 25 57 45 57 45 1 0
-16 -62 -37 -137z m-2539 2 c-13 -53 -18 -65 -16 -37 3 25 -2 54 -10 70 -16
31 -18 56 -4 47 5 -3 18 -2 27 4 25 14 25 7 3 -84z m2445 -324 c-3 -11 -12
-21 -19 -21 -8 0 -19 -7 -26 -15 -11 -13 -11 -20 -1 -39 19 -35 10 -60 -23
-64 -15 -2 -26 0 -23 5 2 4 15 52 27 107 l22 98 25 -25 c18 -18 23 -31 18 -46z
m-3775 -159 c0 -10 4 -22 10 -28 6 -6 0 -13 -18 -20 -26 -10 -30 -8 -45 18
-15 27 -15 28 3 28 10 0 22 5 25 10 10 16 25 11 25 -8z m87 -70 c8 -34 -1 -35
-24 -4 -20 27 -20 28 -1 28 11 0 21 -9 25 -24z m3607 -39 c-8 -27 -24 -83 -36
-125 -11 -43 -24 -78 -28 -78 -10 0 -21 30 -15 39 2 4 14 50 25 101 24 108 25
110 50 110 18 0 18 -2 4 -47z m-99 -323 c-4 -17 -9 -29 -12 -26 -3 2 -2 19 2
36 4 17 9 29 12 26 3 -2 2 -19 -2 -36z m-15 -94 c0 -3 -4 -8 -10 -11 -5 -3
-10 -1 -10 4 0 6 5 11 10 11 6 0 10 -2 10 -4z m191 -91 c124 -81 74 -286 -74
-302 -60 -7 -110 11 -146 52 -50 57 -59 134 -23 200 42 80 161 105 243 50z
m-2857 -10 c3 -8 1 -15 -4 -15 -6 0 -10 7 -10 15 0 8 2 15 4 15 2 0 6 -7 10
-15z m2034 -147 c-4 -57 -4 -94 2 -96 6 -2 10 -16 10 -31 0 -39 15 -49 70 -43
45 4 49 3 52 -19 4 -31 37 -38 45 -10 3 12 6 21 7 21 0 0 73 -9 161 -20 108
-14 161 -17 163 -10 2 6 12 0 22 -12 28 -36 71 -128 65 -138 -3 -5 1 -12 9
-17 20 -12 73 -125 68 -145 -2 -11 2 -18 10 -18 20 0 70 -107 62 -132 -4 -14
0 -21 13 -24 26 -7 78 -111 63 -129 -7 -9 -6 -16 3 -24 8 -6 16 -8 20 -5 3 3
17 -17 31 -45 15 -28 24 -51 21 -51 -3 0 -41 30 -84 66 -58 48 -77 70 -74 84
6 22 -13 36 -30 21 -19 -15 -276 196 -274 224 2 15 -4 20 -23 20 -33 0 -280
200 -280 226 0 13 -7 19 -22 19 -11 0 -36 11 -53 25 -20 15 -41 23 -55 20 -32
-6 -35 -12 -20 -39 17 -33 6 -76 -21 -76 -27 0 -37 -30 -15 -46 16 -11 16 -17
6 -49 -10 -30 -14 -34 -26 -24 -12 10 -18 9 -31 -4 -14 -13 -14 -19 -3 -32 7
-9 20 -13 27 -11 10 4 13 0 9 -12 -3 -9 -8 -29 -11 -44 -6 -23 -10 -25 -25
-16 -23 15 -52 3 -48 -19 2 -12 13 -18 31 -18 23 1 26 -2 21 -20 -10 -30 -10
-30 -64 15 -35 30 -50 49 -50 67 0 21 -4 24 -29 21 -24 -2 -52 15 -153 94
-106 84 -124 101 -123 125 0 23 -4 28 -25 28 -22 0 -26 -5 -32 -50 -5 -34 -14
-54 -27 -64 -24 -16 -27 -34 -7 -50 19 -16 8 -59 -17 -63 -11 -2 -25 -11 -31
-21 -9 -15 -7 -22 12 -37 35 -29 28 -79 -9 -60 -28 15 -51 1 -47 -29 3 -22 8
-26 34 -25 l30 2 -28 -157 c-27 -146 -42 -201 -58 -201 -11 0 -40 105 -30 108
15 5 40 32 40 42 0 19 -34 41 -54 36 -18 -4 -24 2 -38 40 -14 39 -14 45 -1 53
22 12 12 54 -17 68 -29 14 -49 66 -43 110 4 24 1 33 -15 42 -13 7 -27 32 -38
69 -23 80 -28 87 -60 87 -23 0 -30 -5 -32 -24 -2 -13 1 -28 7 -34 8 -8 -7 -30
-55 -78 l-66 -67 -28 16 c-27 15 -30 15 -49 -2 -25 -23 -26 -39 -6 -60 20 -20
20 -21 -20 -45 -19 -11 -35 -26 -35 -34 0 -7 -13 -26 -29 -41 -28 -26 -31 -27
-46 -12 -23 22 -62 20 -75 -4 -13 -25 -5 -56 16 -64 20 -8 8 -26 -16 -26 -10
0 -25 -7 -33 -15 -13 -13 -16 -13 -21 1 -12 30 -6 82 9 88 9 3 15 18 15 36 0
22 -6 33 -24 41 -13 6 -26 22 -29 36 -4 22 -3 22 13 8 33 -30 80 -13 80 30 0
45 -57 62 -83 25 -14 -20 -15 -20 -21 11 -10 52 -7 70 16 88 16 13 19 24 15
43 -8 31 -59 53 -87 38 -14 -8 -21 -4 -34 15 -18 27 -54 33 -74 13 -7 -7 -12
-26 -12 -43 0 -24 -6 -33 -28 -41 -25 -9 -31 -8 -41 7 -13 22 -61 25 -79 7 -7
-7 -12 -24 -12 -39 0 -21 -7 -29 -29 -37 -23 -8 -32 -7 -42 4 -25 31 -88 8
-92 -33 -2 -30 -46 -46 -86 -30 -34 12 -57 0 -72 -40 -5 -13 -13 -23 -18 -23
-5 0 -3 14 6 30 13 28 13 33 -1 55 -15 22 -14 24 4 30 33 10 52 48 41 78 -5
14 -16 27 -23 30 -7 3 -1 6 14 6 37 1 62 40 53 81 -5 22 -3 32 9 36 8 3 29 30
46 60 30 54 30 54 50 34 11 -11 29 -20 40 -20 23 0 60 33 60 54 0 19 25 26 78
24 27 -1 48 5 60 15 24 22 31 21 25 -2 -11 -44 59 -68 92 -31 15 17 16 24 7
46 -16 33 -17 31 20 38 24 5 36 1 50 -14 10 -11 27 -20 38 -20 24 0 50 26 50
50 0 10 9 22 20 25 15 5 19 12 15 25 -3 10 -3 30 1 44 5 21 9 24 20 15 8 -6
14 -21 14 -33 0 -26 18 -46 40 -46 9 0 34 -13 56 -28 84 -61 236 -100 328 -85
28 4 36 2 36 -9 0 -8 9 -23 19 -32 28 -26 65 -5 59 33 -4 24 1 30 38 47 41 19
43 19 58 2 19 -22 30 -23 50 -2 19 19 20 29 4 45 -10 9 -3 21 32 58 25 25 53
57 62 71 l17 25 0 -33 c1 -18 -4 -43 -10 -54 -10 -18 -8 -25 11 -40 13 -10 38
-18 61 -18 26 0 42 -5 45 -15 7 -17 40 -20 49 -5 3 6 21 10 38 10 29 0 33 -3
32 -27 0 -23 4 -28 25 -28 20 0 25 5 24 24 l-1 24 111 -8 c61 -4 122 -8 136
-9 23 -1 25 2 26 49 2 38 7 53 23 63 21 14 30 52 12 52 -5 0 -5 15 1 35 18 57
24 32 16 -67z m-1989 9 c14 -45 14 -51 -4 -83 -23 -43 -29 -32 -38 69 -6 60
-4 68 10 65 10 -2 23 -22 32 -51z m51 -157 c0 -5 -5 -10 -11 -10 -5 0 -7 5 -4
10 3 6 8 10 11 10 2 0 4 -4 4 -10z m-270 -426 c0 -2 -9 -4 -21 -4 -11 0 -18 4
-14 10 5 8 35 3 35 -6z m-28 -115 c30 -8 29 -8 -10 -4 -23 3 -52 1 -62 -5 -24
-13 -25 -2 -3 29 15 22 17 23 29 6 7 -9 28 -21 46 -26z"/>
<path d="M2903 4414 c-8 -22 10 -49 32 -49 10 0 22 7 28 16 15 24 1 49 -28 49
-15 0 -28 -7 -32 -16z"/>
<path d="M2873 4313 c-7 -2 -13 -15 -13 -28 0 -31 36 -43 58 -21 27 27 -8 65
-45 49z"/>
<path d="M3497 4219 c-39 -22 -4 -79 35 -58 10 5 18 18 18 29 0 25 -30 41 -53
29z"/>
<path d="M1386 4194 c-9 -8 -16 -19 -16 -24 0 -11 29 -40 40 -40 11 0 40 29
40 40 0 11 -29 40 -40 40 -5 0 -16 -7 -24 -16z"/>
<path d="M2824 4186 c-10 -26 4 -48 28 -44 17 2 23 10 23 28 0 18 -6 26 -23
28 -13 2 -25 -3 -28 -12z"/>
<path d="M3599 4164 c-17 -21 0 -49 31 -49 31 0 48 28 31 49 -8 9 -21 16 -31
16 -10 0 -23 -7 -31 -16z"/>
<path d="M1493 4144 c-9 -24 10 -49 38 -49 20 0 24 5 24 30 0 25 -4 30 -28 33
-18 2 -29 -2 -34 -14z"/>
<path d="M2942 4148 c-30 -30 9 -69 44 -43 15 11 17 17 8 32 -14 23 -36 27
-52 11z"/>
<path d="M2280 4126 c-27 -33 18 -72 48 -42 13 13 14 20 6 34 -15 23 -38 26
-54 8z"/>
<path d="M3441 4092 c-12 -23 4 -52 29 -52 25 0 41 30 29 53 -13 22 -46 22
-58 -1z"/>
<path d="M2793 4083 c-18 -7 -16 -52 3 -60 23 -9 51 23 38 44 -12 19 -23 24
-41 16z"/>
<path d="M3560 4055 c-20 -25 -8 -50 25 -50 24 0 31 5 33 24 6 37 -34 55 -58
26z"/>
<path d="M2896 4025 c-9 -24 4 -45 29 -45 27 0 40 26 24 46 -15 18 -45 18 -53
-1z"/>
<path d="M3284 4015 c-9 -23 3 -45 24 -45 25 0 44 23 36 44 -8 20 -53 21 -60
1z"/>
<path d="M2234 4006 c-10 -26 4 -48 28 -44 17 2 23 10 23 28 0 18 -6 26 -23
28 -13 2 -25 -3 -28 -12z"/>
<path d="M1575 3994 c-8 -9 -15 -19 -15 -24 0 -11 29 -40 40 -40 10 0 40 29
40 38 -1 29 -44 46 -65 26z"/>
<path d="M3014 3986 c-10 -26 4 -48 28 -44 17 2 23 10 23 28 0 18 -6 26 -23
28 -13 2 -25 -3 -28 -12z"/>
<path d="M3401 3973 c-13 -26 1 -45 30 -41 18 2 24 9 24 28 0 32 -39 41 -54
13z"/>
<path d="M2350 3965 c-10 -12 -10 -18 0 -30 20 -25 55 -15 55 15 0 30 -35 40
-55 15z"/>
<path d="M1690 3955 c-26 -31 13 -82 44 -56 22 18 20 48 -3 61 -25 13 -26 13
-41 -5z"/>
<path d="M2741 3956 c-16 -20 -3 -46 24 -46 13 0 26 7 29 16 7 19 -10 44 -29
44 -7 0 -18 -6 -24 -14z"/>
<path d="M3515 3929 c-10 -30 18 -58 43 -43 9 6 17 22 17 35 0 34 -50 41 -60
8z"/>
<path d="M2472 3928 c-16 -16 -15 -33 2 -47 22 -18 48 -2 44 28 -3 28 -27 38
-46 19z"/>
<path d="M2862 3921 c-23 -14 -10 -46 18 -46 20 0 25 5 25 25 0 26 -20 36 -43
21z"/>
<path d="M1804 3906 c-11 -28 1 -51 25 -51 32 0 49 28 32 49 -17 20 -50 21
-57 2z"/>
<path d="M3253 3913 c-18 -7 -16 -38 2 -53 18 -15 45 2 45 30 0 14 -23 34 -33
29 -1 0 -8 -3 -14 -6z"/>
<path d="M2593 3893 c-19 -7 -16 -50 4 -57 24 -10 51 20 37 41 -12 19 -23 24
-41 16z"/>
<path d="M1926 3867 c-26 -19 -13 -57 20 -57 28 0 42 25 27 48 -13 22 -26 24
-47 9z"/>
<path d="M2977 3873 c-13 -12 -7 -41 10 -47 21 -8 48 17 40 38 -6 16 -38 22
-50 9z"/>
<path d="M2316 3854 c-19 -19 -17 -33 7 -48 24 -15 56 17 41 41 -15 24 -29 26
-48 7z"/>
<path d="M3356 3854 c-10 -26 19 -52 42 -38 9 6 17 20 17 30 0 26 -50 32 -59
8z"/>
<path d="M1641 3831 c-13 -24 8 -55 34 -50 28 6 42 34 26 53 -18 22 -48 20
-60 -3z"/>
<path d="M2700 3835 c-10 -12 -10 -18 0 -30 17 -20 37 -19 49 3 18 34 -24 57
-49 27z"/>
<path d="M3086 3824 c-9 -22 17 -49 39 -40 10 3 15 15 13 28 -4 29 -42 37 -52
12z"/>
<path d="M3474 3815 c-9 -23 3 -45 24 -45 11 0 25 7 32 15 16 19 -3 45 -32 45
-10 0 -21 -7 -24 -15z"/>
<path d="M2424 3806 c-10 -26 4 -48 28 -44 17 2 23 10 23 28 0 18 -6 26 -23
28 -13 2 -25 -3 -28 -12z"/>
<path d="M2815 3800 c-12 -20 6 -51 28 -48 31 4 31 52 0 56 -11 2 -24 -2 -28
-8z"/>
<path d="M1757 3794 c-13 -14 -7 -43 12 -53 24 -13 55 8 50 35 -4 19 -48 32
-62 18z"/>
<path d="M3204 3786 c-10 -26 4 -48 28 -44 17 2 23 10 23 28 0 18 -6 26 -23
28 -13 2 -25 -3 -28 -12z"/>
<path d="M3982 3778 c-23 -23 -7 -68 24 -68 14 0 44 27 44 40 0 13 -30 40 -44
40 -6 0 -17 -5 -24 -12z"/>
<path d="M2541 3766 c-15 -18 -4 -46 19 -46 28 0 45 27 30 45 -16 19 -34 19
-49 1z"/>
<path d="M2934 3755 c-9 -23 3 -45 25 -45 23 0 35 28 20 46 -15 18 -38 18 -45
-1z"/>
<path d="M1877 3754 c-13 -14 -7 -43 12 -53 24 -13 55 8 50 35 -4 19 -48 32
-62 18z"/>
<path d="M3321 3746 c-17 -20 -2 -46 25 -46 29 0 41 24 24 45 -16 19 -34 19
-49 1z"/>
<path d="M2270 3736 c-18 -22 -5 -46 25 -46 23 0 26 4 23 27 -3 32 -29 41 -48
19z"/>
<path d="M2660 3725 c-17 -20 -5 -45 20 -45 11 0 23 7 26 15 6 15 -11 45 -26
45 -4 0 -13 -7 -20 -15z"/>
<path d="M1991 3702 c-15 -28 8 -57 38 -47 17 5 21 13 19 33 -4 34 -42 43 -57
14z"/>
<path d="M3821 3692 c-12 -23 4 -52 29 -52 25 0 41 30 29 53 -13 22 -46 22
-58 -1z"/>
<path d="M2770 3666 c0 -29 22 -39 46 -22 24 18 11 46 -21 46 -20 0 -25 -5
-25 -24z"/>
<path d="M2110 3666 c-27 -33 18 -72 48 -42 13 13 14 20 6 34 -15 23 -38 26
-54 8z"/>
<path d="M2886 3634 c-9 -22 17 -49 39 -40 10 3 15 15 13 28 -4 29 -42 37 -52
12z"/>
<path d="M3664 3616 c-10 -26 4 -48 28 -44 17 2 23 10 23 28 0 18 -6 26 -23
28 -13 2 -25 -3 -28 -12z"/>
<path d="M3004 3595 c-8 -21 2 -45 19 -45 20 0 40 27 33 45 -7 19 -45 20 -52
0z"/>
<path d="M1947 3594 c-13 -14 -7 -43 12 -53 24 -13 55 8 50 35 -4 19 -48 32
-62 18z"/>
<path d="M3775 3569 c-10 -30 19 -53 47 -38 29 15 20 53 -14 57 -20 2 -28 -2
-33 -19z"/>
<path d="M2064 3545 c-10 -25 4 -45 30 -45 27 0 42 26 25 46 -15 19 -48 18
-55 -1z"/>
<path d="M3893 3534 c-15 -39 38 -67 60 -32 8 12 7 21 -2 32 -17 21 -50 20
-58 0z"/>
<path d="M1912 3481 c-8 -4 -12 -19 -10 -32 2 -19 9 -24 33 -24 33 0 45 25 25
50 -14 17 -29 19 -48 6z"/>
<path d="M2960 3466 c0 -29 24 -40 44 -20 20 20 9 44 -20 44 -19 0 -24 -5 -24
-24z"/>
<path d="M2032 3441 c-21 -13 -11 -55 14 -59 30 -4 48 21 34 47 -11 22 -27 26
-48 12z"/>
<path d="M2476 3265 c-60 -65 -80 -219 -73 -560 7 -355 42 -550 114 -635 63
-75 124 -5 154 177 14 90 14 417 0 573 -22 224 -58 373 -107 437 -30 39 -57
42 -88 8z"/>
<path d="M2166 1694 c-30 -30 -13 -74 29 -74 46 0 60 48 23 74 -28 20 -33 20
-52 0z"/>
<path d="M2950 1651 c-14 -28 13 -55 41 -41 22 12 25 30 7 48 -18 18 -36 15
-48 -7z"/>
<path d="M2288 1649 c-24 -14 -23 -56 2 -69 38 -21 80 22 60 61 -12 21 -35 24
-62 8z"/>
<path d="M3344 1645 c-8 -21 2 -45 19 -45 8 0 20 7 27 15 10 12 10 18 0 30 -7
8 -19 15 -27 15 -7 0 -16 -7 -19 -15z"/>
<path d="M1999 1609 c-18 -34 3 -69 40 -69 45 0 66 44 35 74 -22 23 -61 20
-75 -5z"/>
<path d="M3072 1618 c-16 -16 -15 -33 4 -48 22 -19 54 12 38 37 -14 22 -27 26
-42 11z"/>
<path d="M2402 1608 c-18 -18 -14 -56 7 -68 26 -14 50 -3 57 26 11 42 -34 72
-64 42z"/>
<path d="M1744 1600 c-44 -17 -36 -84 11 -96 54 -13 88 59 43 90 -25 18 -25
18 -54 6z"/>
<path d="M3467 1603 c-15 -14 -7 -43 12 -43 24 0 33 13 25 34 -6 16 -25 21
-37 9z"/>
<path d="M2789 1584 c-17 -21 0 -49 32 -49 18 0 25 6 27 24 6 38 -34 55 -59
25z"/>
<path d="M3853 1589 c-15 -15 -5 -39 17 -39 22 0 32 24 17 39 -6 6 -14 11 -17
11 -3 0 -11 -5 -17 -11z"/>
<path d="M2126 1574 c-30 -30 -13 -74 29 -74 44 0 63 60 26 80 -27 14 -37 13
-55 -6z"/>
<path d="M3187 1573 c-13 -12 -7 -41 10 -47 9 -4 23 0 31 8 13 12 13 18 2 30
-13 17 -32 21 -43 9z"/>
<path d="M2511 1552 c-16 -29 20 -72 46 -56 11 7 18 23 18 40 0 24 -5 30 -27
32 -18 2 -30 -3 -37 -16z"/>
<path d="M1847 1542 c-22 -25 -21 -45 3 -67 29 -27 74 -10 78 28 6 53 -46 77
-81 39z"/>
<path d="M3966 1544 c-4 -10 -2 -22 3 -27 14 -14 43 0 39 20 -4 24 -34 28 -42
7z"/>
<path d="M2904 1535 c-10 -25 4 -45 30 -45 13 0 26 7 30 15 9 25 -5 45 -30 45
-14 0 -27 -7 -30 -15z"/>
<path d="M1582 1533 c-18 -7 -34 -51 -27 -73 3 -9 17 -22 31 -29 22 -9 31 -9
50 4 56 36 8 123 -54 98z"/>
<path d="M2240 1525 c-7 -8 -10 -25 -6 -40 5 -20 13 -25 36 -25 36 0 56 30 40
60 -13 24 -52 26 -70 5z"/>
<path d="M3300 1524 c-11 -12 -10 -18 3 -32 16 -15 18 -15 33 0 19 18 12 48
-9 48 -8 0 -20 -7 -27 -16z"/>
<path d="M2635 1514 c-19 -20 -16 -43 8 -58 37 -23 77 35 41 61 -23 17 -29 16
-49 -3z"/>
<path d="M1973 1508 c-25 -12 -31 -56 -11 -76 19 -19 55 -14 72 10 20 29 20
34 -4 58 -23 23 -26 23 -57 8z"/>
<path d="M4080 1491 c0 -15 6 -21 21 -21 25 0 22 33 -4 38 -12 2 -17 -3 -17
-17z"/>
<path d="M2362 1491 c-8 -4 -12 -21 -10 -37 2 -25 7 -29 32 -29 36 0 56 27 40
53 -13 19 -43 26 -62 13z"/>
<path d="M1687 1472 c-24 -27 -21 -59 8 -78 51 -33 104 21 71 71 -20 30 -56
33 -79 7z"/>
<path d="M3417 1483 c-12 -11 -7 -33 8 -39 20 -8 45 13 38 32 -5 14 -34 19
-46 7z"/>
<path d="M2743 1464 c-8 -22 10 -49 32 -49 10 0 22 7 28 16 15 24 1 49 -28 49
-15 0 -28 -7 -32 -16z"/>
<path d="M3807 1466 c-8 -20 20 -43 35 -28 14 14 3 42 -16 42 -7 0 -16 -6 -19
-14z"/>
<path d="M2083 1463 c-18 -7 -16 -58 2 -73 22 -19 64 -4 71 25 10 42 -27 67
-73 48z"/>
<path d="M3153 1463 c-7 -2 -13 -16 -13 -29 0 -19 5 -24 24 -24 30 0 40 24 20
45 -9 8 -16 15 -17 14 -1 0 -8 -3 -14 -6z"/>
<path d="M2475 1447 c-13 -10 -16 -21 -11 -41 6 -24 11 -27 39 -24 25 2 33 8
35 27 3 15 -3 30 -14 38 -22 16 -26 16 -49 0z"/>
<path d="M1812 1434 c-48 -34 -4 -107 48 -81 31 15 37 52 14 78 -21 23 -33 24
-62 3z"/>
<path d="M2872 1431 c-8 -4 -12 -19 -10 -32 4 -29 45 -34 61 -7 19 30 -19 60
-51 39z"/>
<path d="M3923 1424 c-9 -23 13 -40 32 -24 12 10 13 16 4 26 -15 18 -28 18
-36 -2z"/>
<path d="M2195 1410 c-15 -17 -16 -24 -7 -45 20 -43 82 -28 82 20 0 45 -44 59
-75 25z"/>
<path d="M1530 1400 c-25 -25 -26 -52 -2 -73 37 -34 92 -11 92 38 0 51 -54 71
-90 35z"/>
<path d="M3254 1405 c-4 -9 -2 -21 4 -27 16 -16 47 -5 47 17 0 26 -42 34 -51
10z"/>
<path d="M2316 1374 c-38 -37 1 -87 50 -65 29 13 31 42 6 64 -23 21 -36 21
-56 1z"/>
<path d="M4042 1373 c2 -10 10 -18 18 -18 8 0 16 8 18 18 2 12 -3 17 -18 17
-15 0 -20 -5 -18 -17z"/>
<path d="M1652 1364 c-41 -28 -19 -94 32 -94 26 0 56 29 56 53 0 20 -34 57
-53 57 -7 0 -23 -7 -35 -16z"/>
<path d="M3373 1364 c-3 -8 1 -22 9 -30 13 -14 17 -14 32 1 13 13 14 20 5 31
-15 19 -38 18 -46 -2z"/>
<path d="M2712 1361 c-8 -4 -12 -19 -10 -32 2 -19 9 -24 33 -24 33 0 45 25 25
50 -14 17 -29 19 -48 6z"/>
<path d="M4157 1343 c-3 -5 -2 -15 3 -22 10 -17 43 -6 38 12 -6 15 -34 22 -41
10z"/>
<path d="M2432 1328 c-30 -30 0 -75 43 -64 41 11 29 76 -15 76 -9 0 -21 -5
-28 -12z"/>
<path d="M2819 1309 c-9 -18 -7 -25 10 -42 20 -20 21 -20 41 -2 24 22 25 29 4
49 -21 22 -41 20 -55 -5z"/>
<path d="M2151 1296 c-20 -23 -5 -65 24 -72 35 -9 57 12 53 50 -3 27 -7 31
-34 34 -19 2 -36 -3 -43 -12z"/>
<path d="M1482 1288 c-22 -22 -14 -66 14 -85 24 -15 29 -15 53 -2 51 28 35 99
-22 99 -18 0 -38 -5 -45 -12z"/>
<path d="M2272 1258 c-39 -39 17 -100 58 -63 34 31 20 75 -25 75 -12 0 -26 -5
-33 -12z"/>
<path d="M4117 1234 c-14 -15 -6 -34 14 -34 14 0 19 5 17 17 -3 18 -20 27 -31
17z"/>
<path d="M2779 1194 c-17 -21 0 -49 31 -49 31 0 48 28 31 49 -8 9 -21 16 -31
16 -10 0 -23 -7 -31 -16z"/>
<path d="M4234 1185 c-3 -8 -3 -19 0 -24 9 -13 36 -2 36 14 0 19 -30 27 -36
10z"/>
<path d="M2242 1153 c-22 -9 -34 -41 -22 -63 17 -31 67 -27 82 6 11 23 10 29
-11 45 -24 20 -28 21 -49 12z"/>
<path d="M2851 1031 c-13 -24 8 -55 34 -50 28 6 42 34 26 53 -18 22 -48 20
-60 -3z"/>
<path d="M3743 1120 c6 -17 438 -934 441 -937 4 -4 179 -33 182 -30 4 3 34
244 34 268 0 9 -140 165 -311 345 -357 378 -354 374 -346 354z"/>
<path d="M1785 1038 c-55 -44 -210 -164 -345 -268 l-245 -189 3 -78 c2 -43 5
-78 6 -79 3 -3 237 24 240 27 2 2 85 123 183 269 99 146 199 293 223 327 24
35 42 64 39 66 -2 2 -49 -32 -104 -75z"/>
<path d="M3711 950 c0 -25 6 -128 14 -230 8 -102 15 -190 15 -197 0 -10 59
-53 74 -53 3 0 19 27 36 59 l29 59 -84 204 c-77 184 -84 199 -84 158z"/>
</g>
</svg>
