<?xml version="1.0" encoding="UTF-8"?>
<!DOCTYPE svg PUBLIC "-//W3C//DTD SVG 1.1//EN" "http://www.w3.org/Graphics/SVG/1.1/DTD/svg11.dtd">
<!-- Creator: CorelDRAW (Evaluation Version) -->
<svg xmlns="http://www.w3.org/2000/svg" xml:space="preserve" width="150mm" height="154mm" version="1.1" style="shape-rendering:geometricPrecision; text-rendering:geometricPrecision; image-rendering:optimizeQuality; fill-rule:evenodd; clip-rule:evenodd"
viewBox="0 0 15000 15400"
 xmlns:xlink="http://www.w3.org/1999/xlink"
 xmlns:xodm="http://www.corel.com/coreldraw/odm/2003">
 <defs>
  <style type="text/css">
   <![CDATA[
    .fil1 {fill:#9AEBED}
    .fil2 {fill:#A275E3}
    .fil0 {fill:#FA86BE}
    .fil3 {fill:#FFFCAB}
   ]]>
  </style>
 </defs>
 <g id="Layer_x0020_1">
  <metadata id="CorelCorpID_0Corel-Layer"/>
  <g id="_2272593143184">
   <path class="fil0" d="M875.48 4287.66l147.48 118.52c301.08,241.43 620.36,475.73 922.76,717.53l460.17 356.59c58.05,46.56 897.45,703.01 925.34,713.42 48.74,-186.09 175.59,-453.33 264.77,-631.74 116.49,-233.06 255.74,-456.51 411.82,-664.55 72.05,-96.04 158.22,-215.48 242.08,-299.82 19.41,-19.52 23,-29.24 40.7,-48.38 15.36,-16.61 28.41,-28.09 44.74,-44.34l88.97 -96.61c500.84,-500.78 1076.12,-878.37 1762.01,-1118.21 951.87,-332.85 2204.09,-337.76 3194.69,99.56 41.95,18.52 78.48,36.42 123.25,54.9 86.81,35.83 161.56,82.15 240.72,123.03l492.09 317.05c69.58,52.05 295.74,226.67 339.28,291.7l1003.98 -978.04c26.04,-26.27 46.05,-38.56 70.68,-62.93 88.44,-87.51 172.73,-180.01 263.29,-263.77l271.04 -263.43c45.99,-45.99 87.74,-80.31 133.62,-126.2l200.42 -200.43c61.94,-62.31 154.86,-127.73 202.29,-198.57 -22.89,-34.18 -106.73,-107.42 -141.04,-133.62 -16.45,-12.56 -19.6,-16.47 -35.17,-31.63 -83.58,-81.37 -180.8,-152.4 -271.52,-225.85 -262.98,-212.92 -544.92,-400.12 -835.09,-575.32l-174.63 -100.03c-34.23,-17.37 -55.55,-31.46 -91.62,-49.43l-375.95 -188.22c-95.11,-47.85 -198.54,-88.32 -295.67,-127.45 -328.48,-132.34 -717.73,-268.28 -1062.24,-340.76 -374.07,-78.7 -568.31,-113.46 -965.28,-163.06 -86.86,-10.85 -176.3,-14.09 -258.8,-23.28 -86.53,-9.65 -189.15,-3.08 -268.18,-13.91 -5.58,-0.77 -13.27,-1.44 -22.71,-2.03l-539.9 0c-412.53,12.88 -852.93,70.47 -1252.21,150.32 -76.21,15.24 -154.03,34.75 -231.37,50.72 -325.8,67.25 -749.75,211.47 -1065.31,337.68l-296.9 126.24c-352.13,146.19 -862.19,438.03 -1169.71,656.41 -54.81,38.93 -110.02,76.62 -164.38,117.7 -27.99,21.15 -53.52,38.2 -81.68,59.36l-159.94 122.15c-27.39,22.31 -52.27,40.18 -78.19,62.85l-259.93 222.59c-112.76,104.9 -217.45,195.01 -330.42,307.97l-437.61 475.46c-13.54,15.98 -19.56,24.6 -33.57,40.66 -288.13,330.47 -529.84,705.01 -752.36,1081.19l-149.15 273.98c-12.92,25.92 -42.55,72.66 -45.66,94.03z"/>
   <path class="fil1" d="M866.7 11098.74l297.27 530.19 276.41 421.38c21.19,28.26 39.11,53.4 58.77,82.27 75.16,110.39 274.33,360.49 364.49,466.92l366.76 397.85c96.68,115.66 405.79,390.59 541.79,504.88 248.64,208.97 449.31,357.56 717.91,536.63 110.33,73.55 384.6,244.01 519.14,312.26 114.92,58.29 247.76,140.58 367.63,189.11 104.62,42.37 254.51,119.91 384.92,171.84 185.25,73.76 426.83,167.7 615.59,223.24 148.68,43.74 288.26,85.4 440.65,123.52 217.65,54.43 462.57,102.25 693.49,137.9l627.82 69.98c21.62,1.14 45.25,-1.2 66.87,-0.06 32.61,1.71 31.01,6.63 66.54,7.69 225.71,6.75 446.83,12.08 675.72,-0.28 44.53,-2.4 96.43,3.85 139.99,-1.05 80.28,-9.01 182.19,-11.48 262.01,-20.07l251.97 -22.69c167.33,-16.14 325.75,-40.35 489.25,-67.5 80.62,-13.38 160.99,-28.48 238.17,-43.92 436.28,-87.26 875.37,-217.4 1287.85,-382.38 137.95,-55.17 258.9,-109.77 389.09,-167.66 60.4,-26.85 121.28,-60.49 183.21,-91.45 33.28,-16.65 61.91,-29.2 93.92,-47.12 31.46,-17.6 60.05,-31.53 91,-50.05 195.39,-116.93 414.68,-234.88 599.08,-373.36l239.63 -176.08c56.36,-42.51 105.33,-79.1 157.49,-124.59l228.64 -194.49c25.88,-19.99 53.53,-45.86 69.53,-71.1 -38.78,-40.15 -103.52,-82.51 -148.87,-118.1 -49.84,-39.12 -99.04,-78.59 -150.29,-116.9l-2088.71 -1620.82 -365.84 222.61c-243.42,126.02 -501.62,249.98 -773.51,325.14 -91.4,25.27 -172.55,48.74 -268.59,72.88 -186.61,46.91 -375.98,74.89 -582.13,100.81 -591.69,74.37 -1263.21,36.14 -1830.64,-124.44 -159.66,-45.18 -361.88,-108.5 -509.27,-173.68 -374.48,-165.6 -527.62,-241.25 -874.35,-476.67 -119.87,-81.39 -269.87,-200.73 -378.25,-297.28l-617.79 -651.59c-13.69,-17.91 -24.3,-29.59 -39.33,-49.74 -98.65,-132.19 -188.62,-263.46 -274.87,-408.08l-89.2 -155.76c-122.33,-229.31 -206.21,-400.46 -295.41,-647.35 -6.66,-18.44 -13.71,-42.85 -20.38,-61.28 -8.93,-24.66 -16.28,-37.73 -23.21,-64.08 -47.99,28.27 -107.6,81.05 -155.67,117.35l-464.61 359.37c-298.75,231.71 -626.56,492.93 -924.18,716.09 -103.53,77.63 -200.13,157.96 -306.11,235.97l-464.08 359.77c-31.67,25.35 -125.68,102.36 -157.31,113.97z"/>
   <path class="fil2" d="M10281.43 11584.73l2088.71 1620.82c51.25,38.31 100.45,77.78 150.29,116.9 45.35,35.59 110.09,77.95 148.87,118.1 91.8,-59.37 372.72,-367.74 481.15,-484.28l105.71 -124.41c189.59,-245.35 337.99,-419.9 506.23,-688.93 69.58,-111.27 211.32,-343.99 273.2,-469.12 93.82,-189.7 153.42,-301.7 244.85,-504.9 63.14,-140.34 157.26,-385.42 207.03,-535.3 14.08,-42.44 27.59,-72.06 39.66,-116.23 41.3,-151.15 90.57,-280.42 135,-458.86 96.56,-387.88 193.21,-864.27 226.5,-1265.58l37.74 -563.55c-0.23,-52.88 6.27,-81.14 7.44,-125.23l0 -24.18 -14.88 -726.48c-19.26,-365.83 -49.61,-582.25 -118.04,-921.21 -6.18,-30.62 -19.89,-103.62 -30.39,-125.51l-7126.35 0 0 2820.85 4179.31 0c0,126.84 -94.55,476.24 -140.1,602.23 -111.63,308.75 -237.86,570.44 -416.64,837.89 -126.44,189.12 -286.69,394.31 -447.26,554.88 -42.65,42.66 -79.77,79.78 -122.38,122.6l-415.65 339.5z"/>
   <path class="fil3" d="M866.7 11098.74c31.63,-11.61 125.64,-88.62 157.31,-113.97l464.08 -359.77c105.98,-78.01 202.58,-158.34 306.11,-235.97 297.62,-223.16 625.43,-484.38 924.18,-716.09l464.61 -359.37c48.07,-36.3 107.68,-89.08 155.67,-117.35 -11.42,-54.64 -36.81,-109.77 -51.97,-165.09 -15.18,-55.39 -32.56,-107.9 -47.59,-167.68 -201.25,-800.15 -206.72,-1524.9 -5.87,-2328.04l98 -341.69c-27.89,-10.41 -867.29,-666.86 -925.34,-713.42l-460.17 -356.59c-302.4,-241.8 -621.68,-476.1 -922.76,-717.53l-147.48 -118.52 -23.75 37.06c-7.18,16.33 -10.79,28.87 -19.57,47.16 -15.66,32.63 -28.56,56.57 -44.73,88.89 -147.34,294.48 -333.69,806.6 -429.72,1144.01 -195.39,686.5 -292.72,1340.06 -292.72,2082.74l0 8.11c0.02,77.48 0.33,155.03 0,232.52l0 20.84 15.04 243.11c4.02,164.48 26.93,326.03 45.68,481.38 73.71,610.64 312.58,1498.21 575.19,2060.07l165.8 365.19z"/>
  </g>
 </g>
</svg>
