<svg xmlns="http://www.w3.org/2000/svg" xmlns:xlink="http://www.w3.org/1999/xlink" width="500" zoomAndPan="magnify" viewBox="0 0 375 374.999991" height="500" preserveAspectRatio="xMidYMid meet" version="1.0"><defs><clipPath id="id1"><path d="M 145.3125 116 L 228 116 L 228 228 L 145.3125 228 Z M 145.3125 116 " clip-rule="nonzero"/></clipPath></defs><rect x="-37.5" width="450" fill="rgb(100%, 100%, 100%)" y="-37.499999" height="449.999989" fill-opacity="1"/><rect x="-37.5" width="450" fill="rgb(100%, 100%, 100%)" y="-37.499999" height="449.999989" fill-opacity="1"/><rect x="-37.5" width="450" fill="rgb(100%, 100%, 100%)" y="-37.499999" height="449.999989" fill-opacity="1"/><rect x="-37.5" width="450" fill="rgb(100%, 100%, 100%)" y="-37.499999" height="449.999989" fill-opacity="1"/><g clip-path="url(#id1)"><path fill="rgb(0%, 0%, 0%)" d="M 226.75 149.40625 C 223.546875 133 210.261719 120.027344 193.691406 117.125 C 172.167969 113.355469 151.296875 126.828125 146.144531 147.78125 C 145.21875 151.554688 147.539062 155.355469 151.328125 156.28125 C 155.117188 157.203125 158.9375 154.890625 159.863281 151.121094 C 163.308594 137.105469 176.78125 128.421875 191.242188 130.976562 C 201.925781 132.84375 210.820312 141.527344 212.882812 152.089844 C 215.128906 163.59375 210.148438 174.867188 200.195312 180.808594 C 187.042969 188.65625 179.191406 202.160156 179.191406 216.925781 L 179.191406 220.140625 C 179.191406 224.023438 182.351562 227.171875 186.253906 227.171875 C 190.15625 227.171875 193.316406 224.023438 193.316406 220.140625 L 193.316406 216.925781 C 193.316406 207.148438 198.601562 198.152344 207.457031 192.867188 C 222.566406 183.851562 230.140625 166.792969 226.75 149.40625 Z M 226.75 149.40625 " fill-opacity="1" fill-rule="nonzero"/></g><path fill="rgb(0%, 0%, 0%)" d="M 186.746094 236.261719 C 182.84375 236.261719 179.683594 239.410156 179.683594 243.292969 L 179.683594 254.757812 C 179.683594 258.636719 182.84375 261.789062 186.746094 261.789062 C 190.644531 261.789062 193.808594 258.636719 193.808594 254.757812 L 193.808594 243.292969 C 193.808594 239.410156 190.644531 236.261719 186.746094 236.261719 Z M 186.746094 236.261719 " fill-opacity="1" fill-rule="nonzero"/></svg>