<svg width="190" height="237" viewBox="0 0 190 237" fill="none" xmlns="http://www.w3.org/2000/svg">
<path d="M70.6484 168C71.4297 164.745 73.1875 162.987 75.9219 162.727H86.2734V116.242L78.6562 109.406L38.6172 168.195L4.4375 168C5.21875 164.745 6.97656 162.987 9.71094 162.727H12.6406L61.4688 93.5859L30.0234 64.875C24.6849 59.7969 20.6484 56.9974 17.9141 56.4766C16.8724 56.2161 15.8958 56.0859 14.9844 56.0859C11.7292 55.0443 9.97135 53.2865 9.71094 50.8125H45.6484V56.0859H30.0234L86.2734 107.258V56.0859H70.6484V50.8125H125.922V56.0859H110.297V162.727H125.922V168H70.6484Z" fill="#A275E3"/>
<path d="M154.969 168V162.727H131.727V110.578H170.203V104.719H131.727V56.0859H156.727C167.664 56.0859 175.151 62.401 179.188 75.0312C179.318 75.1615 179.383 75.2917 179.383 75.4219L183.094 88.3125H188.172L187.391 50.8125H92.0781V56.0859H107.703V162.727H92.0781V168H154.969Z" fill="#F8BD0F"/>
<path d="M13.5791 206.712C13.4033 205.979 13.0078 205.584 12.3926 205.525H10.0635V195.066L11.7773 193.528L20.7861 206.756L28.4766 206.712C28.3008 205.979 27.9053 205.584 27.29 205.525H26.6309L15.6445 189.969L22.7197 183.509C23.9209 182.366 24.8291 181.736 25.4443 181.619C25.6787 181.561 25.8984 181.531 26.1035 181.531C26.8359 181.297 27.2314 180.901 27.29 180.345H19.2041V181.531H22.7197L10.0635 193.045V181.531H13.5791V180.345H1.14258V181.531H4.6582V205.525H1.14258V206.712H13.5791ZM29.6912 196.648H38.9197V198.494H29.6912V196.648ZM56.1305 206.712V205.525H50.901V193.792H59.5582V192.474H50.901V181.531H56.526C58.9869 181.531 60.6715 182.952 61.5797 185.794C61.609 185.823 61.6236 185.853 61.6236 185.882L62.4586 188.782H63.6012L63.4254 180.345H41.9801V181.531H45.4957V205.525H41.9801V206.712H56.1305ZM80.3285 207.151C82.4086 207.151 83.6977 206.331 84.1957 204.69C84.3422 204.104 84.4447 203.401 84.5033 202.581L83.3607 202.537C83.185 204.588 82.6576 205.628 81.7787 205.657C81.1049 205.599 80.768 204.866 80.768 203.46V194.231C80.768 190.452 78.9809 188.211 75.4066 187.508C74.6742 187.361 73.8979 187.288 73.0775 187.288C69.3861 187.288 66.9984 188.108 65.9145 189.749C65.5922 190.218 65.4311 190.716 65.4311 191.243C65.4311 192.239 65.8998 192.884 66.8373 193.177C67.101 193.265 67.3646 193.309 67.6283 193.309C68.683 193.309 69.4154 192.767 69.8256 191.683C69.8842 191.536 69.9721 191.287 70.0893 190.936C70.4408 189.734 70.8949 188.987 71.4516 188.694C71.8324 188.519 72.2572 188.431 72.726 188.431C74.4838 188.431 75.5092 189.471 75.8021 191.551C75.8607 192.02 75.89 192.532 75.89 193.089V195.901C68.2143 196.019 64.3617 198.025 64.3324 201.922C64.3324 204.441 65.4311 206.067 67.6283 206.8C68.3314 207.034 69.0932 207.151 69.9135 207.151C72.2279 207.151 74.0297 206.331 75.3187 204.69C75.6703 204.192 75.9486 203.68 76.1537 203.152C76.6225 205.789 78.0141 207.122 80.3285 207.151ZM71.935 205.306C70.2943 205.306 69.4154 204.134 69.2982 201.79C69.2982 201.644 69.2982 201.497 69.2982 201.351C69.2982 199.358 70.2943 198.099 72.2865 197.571C73.224 197.308 74.4252 197.161 75.89 197.132V201.131C75.392 203.123 74.4545 204.427 73.0775 205.042C72.6674 205.218 72.2865 205.306 71.935 205.306ZM94.0676 205.569H92.7053L92.7492 194.715C92.9543 192.371 93.8332 190.76 95.3859 189.881C95.9426 189.588 96.4992 189.441 97.0559 189.441C98.6965 189.441 99.7365 190.306 100.176 192.034C100.322 192.562 100.396 193.147 100.396 193.792V203.196C100.396 204.427 100.059 205.159 99.385 205.394C99.0627 205.511 98.5939 205.569 97.9787 205.569V206.712H108.042C108.042 206.067 107.852 205.701 107.471 205.613C107.295 205.584 107.119 205.569 106.944 205.569H105.23V194.451C105.23 190.994 104.029 188.768 101.626 187.771C100.864 187.449 100.044 187.288 99.1652 187.288C97.0559 187.288 95.2688 188.123 93.8039 189.793C93.3352 190.35 92.9543 190.936 92.6613 191.551L92.4416 187.903H85.0588V189.002H87.8713V203.196C87.8713 204.485 87.3879 205.232 86.4211 205.438C86.0402 205.525 85.5861 205.569 85.0588 205.569V206.712H95.1662C95.1662 206.067 94.9758 205.701 94.5949 205.613C94.4191 205.584 94.2434 205.569 94.0676 205.569ZM124.77 206.712H132.152C132.152 206.067 131.977 205.701 131.625 205.613C131.479 205.584 131.288 205.569 131.054 205.569H128.988V178.147H120.067V179.29H124.11V189.354C122.616 187.977 120.785 187.288 118.617 187.288C115.717 187.288 113.402 188.46 111.674 190.804C110.297 192.708 109.608 195.008 109.608 197.703C109.608 201.336 110.795 204.017 113.168 205.745C114.486 206.683 115.951 207.151 117.562 207.151C120.434 207.151 122.543 205.833 123.891 203.196C124.037 202.933 124.154 202.684 124.242 202.449L124.77 206.712ZM114.926 197.176C114.926 192.957 115.893 190.276 117.826 189.134C118.441 188.782 119.086 188.606 119.76 188.606C121.781 188.606 123.129 189.939 123.803 192.605C124.066 193.689 124.198 194.935 124.198 196.341C124.198 200.442 123.29 203.167 121.474 204.515C120.829 204.983 120.111 205.218 119.32 205.218C117.152 205.218 115.775 203.636 115.189 200.472C115.014 199.476 114.926 198.377 114.926 197.176ZM139.036 197.22C139.036 192.767 139.827 190.027 141.409 189.002C142.054 188.621 142.801 188.431 143.65 188.431C145.877 188.431 147.283 189.69 147.869 192.21C148.162 193.44 148.308 195.052 148.308 197.044C148.308 201.761 147.415 204.603 145.628 205.569C145.042 205.862 144.383 206.009 143.65 206.009C141.453 206.009 140.061 204.749 139.475 202.229C139.182 200.97 139.036 199.3 139.036 197.22ZM143.826 187.288C140.486 187.288 137.849 188.431 135.916 190.716C134.451 192.474 133.719 194.583 133.719 197.044C133.719 200.442 134.92 203.108 137.322 205.042C139.08 206.448 141.145 207.151 143.518 207.151C146.77 207.151 149.363 205.979 151.297 203.636C152.82 201.79 153.582 199.593 153.582 197.044C153.582 193.616 152.351 190.994 149.89 189.178C148.191 187.918 146.17 187.288 143.826 187.288ZM164.201 205.569H163.014L163.058 194.715C163.263 192.312 164.113 190.687 165.607 189.837C166.076 189.573 166.545 189.441 167.013 189.441C168.214 189.441 169.064 190.159 169.562 191.595C169.767 192.239 169.87 192.972 169.87 193.792V203.196C169.87 204.397 169.591 205.115 169.035 205.35C168.712 205.496 168.229 205.569 167.585 205.569V206.712H176.945C176.945 206.067 176.754 205.701 176.374 205.613C176.198 205.584 176.022 205.569 175.846 205.569H174.704V194.451V193.88C175.026 191.712 175.89 190.291 177.296 189.617C177.677 189.441 178.058 189.354 178.439 189.354C179.787 189.354 180.724 190.101 181.252 191.595C181.457 192.269 181.559 193.001 181.559 193.792V203.196C181.559 204.397 181.281 205.115 180.724 205.35C180.402 205.496 179.919 205.569 179.274 205.569V206.712H189.162C189.162 206.067 188.971 205.701 188.59 205.613C188.415 205.584 188.239 205.569 188.063 205.569H186.393V194.275C186.393 191.375 185.426 189.324 183.493 188.123C182.614 187.566 181.662 187.288 180.636 187.288C177.882 187.288 175.817 188.621 174.44 191.287C174.381 191.404 174.337 191.507 174.308 191.595C173.664 189.427 172.433 188.064 170.617 187.508C170.148 187.361 169.665 187.288 169.167 187.288C166.588 187.288 164.64 188.431 163.322 190.716C163.205 190.95 163.087 191.185 162.97 191.419L162.751 187.903H155.368V189.002H158.18V203.196C158.18 204.485 157.697 205.232 156.73 205.438C156.349 205.525 155.895 205.569 155.368 205.569V206.712H165.255C165.255 206.038 165.036 205.672 164.596 205.613C164.479 205.584 164.347 205.569 164.201 205.569Z" fill="black"/>
</svg>
